OpenSim_Sub10_CSStiffKnee_GRF.mot
version=1
nRows=70
nColumns=19
inDegrees=no
endheader
time	lFx	lFy	lFz	lCOPx	lCOPy	lCOPz	rFx	rFy	rFz	rCOPx	rCOPy	rCOPz	lMx	lMy	lMz	rMx	rMy	rMz
61.30000000	-5.86532395	0.00294874	-1.85392453	0.00120160	0	-0.00087008	5.36312245	663.03036561	-58.21525612	0.82516788	0	-0.37901012	0	0.00309040	0	0	-0.58001172	0
61.31000000	-5.85941157	0.09720942	-1.82093400	-0.00066007	0	0.00050732	6.53399269	658.71342156	-57.91791887	0.82118090	0	-0.37885016	0	0.00053341	0	0	-0.47765879	0.00000000
61.32000000	-5.83158184	-0.30530109	-1.82861819	-0.00657540	0	0.00485105	7.68603257	654.53051980	-57.84686768	0.81711339	0	-0.37871491	0	-0.01008681	0	0	-0.35786461	0
61.33000000	-5.82777290	-1.70143016	-1.97775897	-0.01761033	0	0.01291500	8.99751356	650.36873218	-57.94152016	0.81297328	0	-0.37860714	0	-0.03287679	0	0	-0.20026935	0
61.34000000	-6.05216101	-4.10872858	-2.19385367	-0.02893445	0	0.02111060	10.62099346	646.46811513	-58.17030267	0.80879348	0	-0.37854533	0	-0.06231762	0	0	-0.06881210	0
61.35000000	-6.81145497	-5.93538664	-2.28935283	-0.02173023	0	0.01560228	12.72933610	643.29569754	-58.48571751	0.80427646	0	-0.37853434	0	-0.06595618	0	0	0.01672917	0.00000000
61.36000000	-8.34123998	-2.17592587	-1.78693045	0.04324621	0	-0.03232364	15.46734085	641.42078431	-58.76691483	0.79925000	0	-0.37853995	0	0.03455013	0	0	0.12443524	0
61.37000000	-10.18249489	16.18740085	0.01125498	0.21468268	0	-0.15803558	18.76884074	641.20477185	-58.95739656	0.79371877	0	-0.37855888	0	0.35578208	0	0	0.28543345	0
61.38000000	-10.75271278	59.23238773	3.82449710	0.49273907	0	-0.36087304	22.46949657	642.24231821	-58.98992116	0.78771065	0	-0.37861268	0	0.95743842	0	0	0.46725820	0
61.39000000	-10.50959638	131.89586049	9.97355163	0.74638725	0	-0.54446934	26.49580197	643.49863056	-58.83942424	0.78128357	0	-0.37873129	0	1.69420059	0	0	0.68239275	0
61.40000000	-12.82898985	226.89938485	18.55119430	0.88368613	0	-0.64186346	30.90223777	643.99885134	-58.54595018	0.77472108	0	-0.37892180	0	2.14067444	0	0	0.93217340	0
61.41000000	-18.82897893	326.06076101	27.44599194	0.92934257	0	-0.67160926	35.57006174	643.15578108	-58.01491578	0.76817082	0	-0.37912187	0	2.43181107	0	0	1.17447275	0
61.42000000	-26.72649812	409.74074665	33.06231697	0.93127546	0	-0.66947197	40.21263762	640.67846278	-57.33791041	0.76163307	0	-0.37932516	0	3.19632405	0	0	1.41480459	0
61.43000000	-35.49343963	468.03222551	35.38825490	0.92192521	0	-0.65953022	44.63504295	636.32176766	-56.71541015	0.75508419	0	-0.37959702	0	4.26820318	0	0	1.64796106	0
61.44000000	-44.78133463	503.15223363	37.46586845	0.91431622	0	-0.65188278	48.88939208	630.09367830	-56.04881394	0.74862136	0	-0.37992115	0	4.86732084	0	0	1.82187921	0
61.45000000	-52.26616405	523.92255347	40.90046519	0.90981323	0	-0.64845324	53.04660863	622.04887923	-55.12530885	0.74223682	0	-0.38022306	0	4.82965559	0	0	1.94163231	0
61.46000000	-56.20289786	539.53619498	46.34983378	0.90649465	0	-0.64805206	57.22681082	611.92119738	-53.82972618	0.73578578	0	-0.38045624	0	4.18871941	0	0	2.06922464	0
61.47000000	-56.52220427	555.66250469	53.60693634	0.90275265	0	-0.64901527	61.51462885	599.05127135	-52.10284470	0.72922833	0	-0.38060618	0	3.02019768	0	0	2.18664809	0
61.48000000	-54.23348201	573.76167366	61.02667719	0.89820306	0	-0.65019803	66.11117880	582.40998722	-49.81191652	0.72257189	0	-0.38065745	0	1.68509504	0	0	2.24965928	0.00000000
61.49000000	-50.40918113	592.99095739	66.80161693	0.89294985	0	-0.65103973	70.81139306	560.86104470	-46.83344489	0.71587621	0	-0.38059593	0	0.60432832	0	0	2.25869112	0
61.50000000	-45.66068347	612.45289412	70.06988466	0.88712077	0	-0.65141944	74.95550804	533.32090895	-43.08839848	0.70913945	0	-0.38041478	0	-0.00243341	0	0	2.21288723	0
61.51000000	-40.19283266	631.33454190	71.01232445	0.88090403	0	-0.65141480	77.77704930	499.00033358	-38.53398524	0.70235934	0	-0.38014787	0	-0.09131716	0	0	2.11841573	0
61.52000000	-34.20188115	648.64572727	70.52894401	0.87453671	0	-0.65120673	78.44390698	457.47748768	-33.18838230	0.69550803	0	-0.37989394	0	0.20027706	0	0	2.02223945	-0.00000000
61.53000000	-28.11489031	662.68936244	69.67170113	0.86820877	0	-0.65099800	76.36588528	409.00844589	-26.91358229	0.68880743	0	-0.37980114	0	0.57689920	0	0	1.93250514	0.00000000
61.54000000	-22.37680078	671.70043583	69.02516236	0.86201611	0	-0.65088098	71.18512518	355.10856679	-19.82829346	0.68336228	0	-0.38028980	0	0.84421579	0	0	1.80970519	0
61.55000000	-17.43932507	674.60070954	68.63563367	0.85595628	0	-0.65080947	63.15036186	298.29333652	-12.86206597	0.68069670	0	-0.38222296	0	0.95020093	0	0	1.66662265	0
61.56000000	-13.56945072	670.98370136	68.15571827	0.85026940	0	-0.65073208	53.02644529	241.40425284	-7.09715621	0.68218342	0	-0.38628181	0	0.92395591	0	0	1.51130732	0.00000000
61.57000000	-10.76895602	661.31436063	67.11518353	0.84517258	0	-0.65064511	41.46860356	187.41707055	-3.14380489	0.68707298	0	-0.39156466	0	0.88041340	0	0	1.33568780	0
61.58000000	-8.66304022	647.07821563	65.45132108	0.84051578	0	-0.65052495	29.16998429	138.94898329	-1.31622645	0.68771968	0	-0.39315154	0	0.86749707	0	0	1.11749752	-0.00000000
61.59000000	-6.74738808	630.59521291	63.38927789	0.83609034	0	-0.65034251	17.61061787	97.81596083	-1.42520148	0.66308621	0	-0.37865276	0	0.90350865	0	0	0.90980814	0
61.60000000	-4.79947435	614.25276649	61.11564241	0.83166741	0	-0.65009136	8.06344404	64.73193502	-2.43162197	0.57806009	0	-0.32840902	0	1.04884270	0	0	0.66299806	0.00000000
61.61000000	-2.99890338	599.75024351	58.84013405	0.82714553	0	-0.64975664	0.82904878	39.60902433	-3.34365887	0.40830072	0	-0.22921656	0	1.30616096	0	0	0.34882591	0
61.62000000	-1.46774083	587.86688801	56.67214558	0.82257588	0	-0.64936846	-3.57470919	21.87750324	-3.55458587	0.20216418	0	-0.11027120	0	1.60922483	0	0	0.09987571	0
61.63000000	-0.18993228	578.89265155	54.69224740	0.81799188	0	-0.64898848	-4.51558134	10.14065807	-2.59798876	0.05599792	0	-0.02872398	0	1.89990553	0	0	-0.01124500	0.00000000
61.64000000	0.92012763	572.94927430	53.03329566	0.81332249	0	-0.64864079	-2.91434086	3.28404075	-0.99968946	-0.00814219	0	0.00590960	0	2.15393607	0	0	-0.03541056	0.00000000
61.65000000	1.88249266	569.97595350	51.83777851	0.80862808	0	-0.64832558	-1.13490977	0.40617146	0.00683969	-0.02133605	0	0.01234232	0	2.36725639	0	0	-0.02559970	-0.00000000
61.66000000	2.71745714	569.72442755	51.12964019	0.80387575	0	-0.64806733	-0.10621326	-0.07455622	0.15613119	-0.01506425	0	0.00839791	0	2.58772524	0	0	-0.01131244	-0.00000000
61.67000000	3.55644933	571.86287397	50.90254941	0.79891186	0	-0.64788376	0.25484935	0.38444154	0.17223534	-0.00652537	0	0.00351955	0	2.77853524	0	0	-0.00237441	-0.00000000
61.68000000	4.51402838	576.14773622	51.07424938	0.79356232	0	-0.64775833	0.25614340	0.89560842	0.13904265	-0.00129117	0	0.00062447	0	2.89728409	0	0	0.00106792	0.00000000
61.69000000	5.57286265	582.47353520	51.43079166	0.78799946	0	-0.64769747	0.14490376	1.09323263	0.01947121	0.00067931	0	-0.00042443	0	2.97368167	0	0	0.00148766	-0.00000000
61.70000000	6.64782896	590.54910002	51.81174523	0.78244888	0	-0.64768758	0.06542300	1.05150675	-0.00551744	0.00088850	0	-0.00050707	0	3.03642058	0	0	0.00091845	0.00000000
61.71000000	7.82014769	599.81104886	52.16708175	0.77691785	0	-0.64770302	0.01897858	0.98573765	0.00347804	0.00053759	0	-0.00029711	0	3.09372605	0	0	0.00034857	0.00000000
61.72000000	9.24393602	609.51981492	52.48111503	0.77112940	0	-0.64770576	0.00399826	1.01556644	-0.05438744	0.00019935	0	-0.00010595	0	3.18199067	0	0	0.00003897	0.00000000
61.73000000	10.97261110	618.98634702	52.78521180	0.76521097	0	-0.64771087	0.00268990	1.14141916	-0.04738112	0.00001904	0	-0.00000712	0	3.33829865	0	0	-0.00006049	-0.00000000
61.74000000	12.88573831	627.68662853	53.15157790	0.75945588	0	-0.64777105	0.00960635	1.24726325	-0.03914214	-0.00003721	0	0.00002220	0	3.49962845	0	0	-0.00005907	0.00000000
61.75000000	15.02308340	635.24456876	53.62923242	0.75383388	0	-0.64789762	0.00642062	1.30318501	-0.07597624	-0.00003504	0	0.00001979	0	3.60537030	0	0	-0.00003170	-0.00000000
61.76000000	17.46276039	641.60681782	54.18693286	0.74830962	0	-0.64806041	-0.00723797	1.28365897	-0.05528509	-0.00001845	0	0.00001010	0	3.67671725	0	0	-0.00001000	0.00000000
61.77000000	20.17971146	646.89228790	54.77279068	0.74289982	0	-0.64824317	0.00183189	1.24714248	-0.05863435	-0.00000564	0	0.00000293	0	3.72979796	0	0	0.00000029	0.00000000
61.78000000	23.05259722	651.14839247	55.41410662	0.73764400	0	-0.64840962	0.05406705	1.20357078	-0.06705593	0.00000030	0	-0.00000029	0	3.76318028	0	0	0.00000288	0.00000000
61.79000000	25.98702481	654.35112310	56.01631320	0.73228158	0	-0.64855531	0.08356557	1.14749390	-0.03962012	0.00000170	0	-0.00000100	0	3.79206430	0	0	0.00000226	0.00000000
61.80000000	29.05605583	656.61019586	56.41564970	0.72661424	0	-0.64870261	0.06459745	1.12475188	-0.04330804	0.00000124	0	-0.00000070	0	3.82682973	0	0	0.00000112	-0.00000000
61.81000000	32.26225219	658.10636397	56.52380509	0.72056495	0	-0.64881273	0.04138491	1.13184699	-0.08569279	0.00000049	0	-0.00000028	0	3.90411628	0	0	0.00000038	0.00000000
61.82000000	35.40614288	659.41644931	56.43797157	0.71439166	0	-0.64887489	0.04249274	1.20521321	-0.11412506	0.00000010	0	-0.00000005	0	4.01230265	0	0	0.00000007	-0.00000000
61.83000000	38.27776050	661.04609565	56.31044640	0.70810774	0	-0.64889620	0.05404676	1.30058646	-0.11565127	0.00000029	0	-0.00000011	0	4.12719603	0	0	-0.00000020	-0.00000000
61.84000000	40.92897789	663.37880659	56.23034121	0.70167651	0	-0.64892623	0.05279257	1.41519954	-0.08201432	0.00000109	0	-0.00000043	0	4.26195378	0	0	-0.00000083	0.00000000
61.85000000	43.56808289	666.38749301	56.14639759	0.69510038	0	-0.64901047	0.03934487	1.50016196	-0.06086874	0.00000226	0	-0.00000091	0	4.43844913	0	0	-0.00000202	0.00000000
61.86000000	46.32958805	669.32885793	55.96882242	0.68853948	0	-0.64911381	0.02441243	1.49624265	-0.10535531	0.00000261	0	-0.00000106	0	4.62570474	0	0	-0.00000328	0.00000000
61.87000000	49.10814644	671.20533853	55.70376472	0.68213860	0	-0.64917761	0.01773707	1.38354430	-0.11132427	-0.00000071	0	0.00000029	0	4.75653847	0	0	-0.00000245	0.00000000
61.88000000	51.95506357	671.16004947	55.33700873	0.67571005	0	-0.64918780	-0.00120009	1.25371841	-0.07009781	-0.00001213	0	0.00000495	0	4.82624779	0	0	0.00000490	-0.00000000
61.89000000	55.01969424	668.62198005	54.87410689	0.66918244	0	-0.64916716	-0.02341583	1.19822257	-0.02467917	-0.00003441	0	0.00001405	0	4.86384372	0	0	0.00002428	0.00000000
61.90000000	58.26758427	663.26345351	54.33070047	0.66258627	0	-0.64910465	-0.04358625	1.17265922	-0.00457960	-0.00005926	0	0.00002418	0	4.87105324	0	0	0.00005571	-0.00000000
61.91000000	61.30101035	655.13331145	53.72248684	0.65607087	0	-0.64898813	-0.05764498	1.11232955	-0.02965117	-0.00005077	0	0.00002069	0	4.81746337	0	0	0.00007835	0.00000000
61.92000000	63.92603437	644.30263476	52.95052758	0.64965411	0	-0.64884970	-0.06952530	1.18632192	-0.05115160	0.00006940	0	-0.00002839	0	4.73671398	0	0	0.00002840	0.00000000
61.93000000	66.25886679	630.52763615	51.88932996	0.64330023	0	-0.64872867	-0.07053230	1.37602795	-0.03411184	0.00040480	0	-0.00016530	0	4.66970472	0	0	-0.00021020	0.00000000
61.94000000	68.43191775	613.25863703	50.43910784	0.63687234	0	-0.64863910	-0.06115323	1.51422467	-0.07191475	0.00097507	0	-0.00039798	0	4.64652501	0	0	-0.00075067	0.00000000
61.95000000	70.35683753	591.54389700	48.48639677	0.63042098	0	-0.64856235	-0.05048995	1.58030801	-0.13698903	0.00144766	0	-0.00059058	0	4.66079532	0	0	-0.00149914	-0.00000000
61.96000000	71.64451213	564.24256527	45.81018929	0.62410748	0	-0.64849238	0.02149491	1.55286821	-0.10097367	0.00073084	0	-0.00029739	0	4.71355723	0	0	-0.00173920	-0.00000000
61.97000000	71.98631836	530.17022311	42.05775019	0.61798732	0	-0.64838785	0.18930800	1.22058563	-0.16447401	-0.00325382	0	0.00132973	0	4.82825271	0	0	0.00036458	0.00000000
61.98000000	71.04758137	488.87012621	37.05647899	0.61205325	0	-0.64812668	0.33901395	0.26099877	-0.42431307	-0.01272426	0	0.00519511	0	5.01624363	0	0	0.00771003	0.00000000
61.99000000	68.36438191	441.06206556	30.95386175	0.60654805	0	-0.64762377	0.15574176	-1.54094507	-0.68565011	-0.02658367	0	0.01084897	0	5.27058909	0	0	0.02220149	0.00000000
